<?xml version="1.0" standalone="no"?>
<!DOCTYPE svg PUBLIC "-//W3C//DTD SVG 20010904//EN"
 "http://www.w3.org/TR/2001/REC-SVG-20010904/DTD/svg10.dtd">
<svg version="1.0" xmlns="http://www.w3.org/2000/svg"
 width="190.000000pt" height="162.000000pt" viewBox="0 0 190.000000 162.000000"
 preserveAspectRatio="xMidYMid meet">

<g transform="translate(0.000000,162.000000) scale(0.100000,-0.100000)"
fill="#000000" stroke="none">
<path d="M160 1196 c0 -7 6 -20 13 -29 19 -25 242 -90 402 -117 114 -18 112
-18 118 -47 10 -47 44 -91 88 -113 34 -18 43 -19 50 -8 13 20 11 26 -11 33
-33 10 -80 55 -100 96 -16 31 -27 39 -57 44 -153 24 -353 81 -455 130 -32 16
-48 19 -48 11z"/>
<path d="M1705 1188 c-91 -48 -302 -109 -458 -133 -30 -5 -41 -13 -57 -44 -21
-41 -67 -86 -101 -96 -26 -9 -21 -41 6 -37 45 8 87 46 113 100 l27 56 100 17
c111 19 190 38 310 75 98 31 108 36 103 62 l-3 20 -40 -20z"/>
<path d="M1854 1194 c-71 -48 -346 -133 -533 -165 -69 -12 -74 -15 -87 -45
-26 -63 -77 -108 -142 -128 -19 -6 -25 -2 -37 28 -8 19 -15 51 -15 70 0 28 4
35 22 38 20 3 21 4 5 19 -20 20 -119 34 -144 21 -11 -6 -31 -46 -48 -96 -16
-47 -33 -86 -38 -86 -20 0 -85 34 -111 58 -15 15 -36 45 -46 68 -17 40 -19 41
-91 53 -175 30 -357 83 -478 138 -41 18 -76 31 -79 28 -10 -10 63 -138 88
-156 14 -10 72 -27 130 -39 194 -40 178 -45 -74 -24 l-69 6 32 -45 c17 -25 47
-55 67 -67 34 -21 44 -22 167 -18 140 6 142 -3 5 -22 -45 -6 -99 -14 -118 -17
l-35 -5 30 -24 c46 -37 111 -64 152 -64 43 0 115 20 163 45 17 9 34 15 36 12
5 -4 -87 -68 -131 -90 l-30 -15 30 -12 c76 -29 172 -29 190 0 3 6 16 15 28 21
18 10 17 7 -7 -22 -16 -19 -35 -38 -42 -42 -24 -14 -5 -27 40 -27 44 0 65 11
85 45 l12 20 -4 -20 c-3 -11 -8 -27 -11 -36 -6 -13 -1 -15 26 -11 l33 4 -28
-30 c-16 -16 -24 -31 -19 -33 6 -3 6 -13 1 -27 -7 -19 -14 -22 -31 -16 -13 3
-20 3 -16 -1 4 -5 2 -15 -5 -23 -10 -13 -9 -14 8 -4 16 8 24 7 38 -6 18 -16
18 -15 12 9 -6 25 18 60 31 46 4 -3 15 4 25 16 24 28 23 20 -1 -46 -11 -29
-36 -70 -55 -91 -20 -22 -33 -42 -30 -45 4 -3 25 1 48 10 l42 15 -4 -43 c-4
-53 8 -55 48 -6 l31 38 0 -33 c0 -33 24 -102 35 -102 11 0 35 69 35 102 l0 33
31 -38 c40 -49 52 -47 47 8 -2 25 -3 45 -2 45 1 0 15 -7 30 -15 27 -14 64 -20
64 -11 0 2 -16 21 -35 42 -19 21 -44 62 -55 91 -24 66 -25 74 -1 46 10 -12 21
-19 25 -16 13 14 37 -21 31 -46 -6 -24 -6 -25 12 -9 14 13 22 14 38 6 17 -10
18 -9 8 4 -7 8 -9 18 -5 23 4 4 -3 4 -16 1 -17 -6 -24 -3 -31 16 -5 14 -5 24
1 27 5 2 -3 17 -19 33 l-28 30 33 -4 c17 -3 32 -4 32 -2 0 1 -7 19 -15 40 -9
23 -10 31 -2 20 29 -45 47 -56 91 -56 47 0 67 13 42 27 -7 4 -26 24 -42 43
-28 33 -28 34 -4 17 69 -49 122 -53 215 -17 l30 12 -30 15 c-44 22 -136 86
-131 90 2 3 19 -3 36 -12 48 -25 120 -45 163 -45 41 0 106 27 152 64 l30 24
-35 5 c-19 3 -73 11 -118 17 -137 19 -135 28 5 22 123 -4 133 -3 167 18 20 12
50 42 67 67 l32 45 -69 -6 c-252 -21 -268 -16 -74 24 58 12 115 28 127 36 26
16 70 88 83 135 12 39 11 41 -16 23z"/>
<path d="M695 480 c-3 -6 1 -7 9 -4 18 7 21 14 7 14 -6 0 -13 -4 -16 -10z"/>
<path d="M1190 486 c0 -2 7 -7 16 -10 8 -3 12 -2 9 4 -6 10 -25 14 -25 6z"/>
</g>
</svg>
